<?xml version="1.0" encoding="utf-8"?>
<!-- Generator: Adobe Illustrator 23.0.5, SVG Export Plug-In . SVG Version: 6.00 Build 0)  -->
<svg version="1.1" xmlns="http://www.w3.org/2000/svg" xmlns:xlink="http://www.w3.org/1999/xlink" x="0px" y="0px"
	 viewBox="0 0 554.56 153.89" style="enable-background:new 0 0 554.56 153.89;" xml:space="preserve">
<style type="text/css">
	.st0{fill:#CCCCCC;}
	.st1{fill:none;stroke:#3B3B3B;stroke-width:2.7288;stroke-miterlimit:10;}
	.st2{fill:none;stroke:#3B3B3B;stroke-width:1.3644;stroke-miterlimit:10;}
	.st3{fill:#3B3B3B;}
	.st4{font-family:'Bebas';}
	.st5{font-size:57.2677px;}
	.st6{letter-spacing:4;}
	.st7{font-family:'Catamaran-Medium';}
	.st8{font-size:20.1021px;}
	.st9{fill:none;stroke:#3B3B3B;stroke-width:2.7226;stroke-miterlimit:10;}
</style>
<g id="OBJECTS">
	<g>
		<rect x="11" y="78.38" class="st0" width="103.4" height="32.79"/>
		<rect x="2.18" y="79.93" class="st1" width="112.22" height="35.02"/>
		<line class="st2" x1="18.21" y1="79.93" x2="18.21" y2="114.95"/>
		<line class="st2" x1="34.24" y1="79.93" x2="34.24" y2="114.95"/>
		<line class="st2" x1="50.28" y1="79.93" x2="50.28" y2="114.95"/>
		<line class="st2" x1="66.31" y1="79.93" x2="66.31" y2="114.95"/>
		<line class="st2" x1="82.34" y1="79.93" x2="82.34" y2="114.95"/>
		<line class="st2" x1="98.37" y1="79.93" x2="98.37" y2="114.95"/>
		<rect x="14.92" y="79.93" class="st3" width="6.59" height="22.4"/>
		<rect x="30.95" y="79.93" class="st3" width="6.59" height="22.4"/>
		<rect x="46.98" y="79.93" class="st3" width="6.59" height="22.4"/>
		<rect x="79.04" y="79.93" class="st3" width="6.59" height="22.4"/>
		<rect x="95.07" y="79.93" class="st3" width="6.59" height="22.4"/>
		<text transform="matrix(1 0 0 1 119.6735 91.1287)" class="st3 st4 st5 st6">LaNotaDeMarfil</text>
		<text transform="matrix(1 0 0 1 128.3031 114.3113)" class="st3 st7 st8 st6">Vive la musica</text>
		<path class="st9" d="M2.18,80.27c0,0,0-6.08,0-14.67c0-8.59,6.59-21.2,24.94-21.2c13.18,0,19.95-7.67,19.95-14.47
			c0-10.5,8.55-28.57,33.84-28.57s33.49,18.97,33.49,29.7c0,9.3,0,49.21,0,49.21H2.18z"/>
	</g>
</g>
<g id="DESIGNED_BY_FREEPIK">
</g>
</svg>
